<?xml version="1.0" encoding="utf-8" standalone="no"?>
<!DOCTYPE svg PUBLIC "-//W3C//DTD SVG 1.1//EN"
  "http://www.w3.org/Graphics/SVG/1.1/DTD/svg11.dtd">
<svg xmlns:xlink="http://www.w3.org/1999/xlink" width="692.875477pt" height="423.81pt" viewBox="0 0 692.875477 423.81" xmlns="http://www.w3.org/2000/svg" version="1.1">
 <metadata>
  <rdf:RDF xmlns:dc="http://purl.org/dc/elements/1.1/" xmlns:cc="http://creativecommons.org/ns#" xmlns:rdf="http://www.w3.org/1999/02/22-rdf-syntax-ns#">
   <cc:Work>
    <dc:type rdf:resource="http://purl.org/dc/dcmitype/StillImage"/>
    <dc:date>2025-12-08T14:51:54.111253</dc:date>
    <dc:format>image/svg+xml</dc:format>
    <dc:creator>
     <cc:Agent>
      <dc:title>Matplotlib v3.9.2, https://matplotlib.org/</dc:title>
     </cc:Agent>
    </dc:creator>
   </cc:Work>
  </rdf:RDF>
 </metadata>
 <defs>
  <style type="text/css">*{stroke-linejoin: round; stroke-linecap: butt}</style>
 </defs>
 <g id="figure_1">
  <g id="patch_1">
   <path d="M 0 423.81 
L 692.875477 423.81 
L 692.875477 0 
L 0 0 
z
" style="fill: #ffffff"/>
  </g>
  <g id="axes_1">
   <g id="patch_2">
    <path d="M 64.98 382.979062 
L 644.574539 382.979062 
L 644.574539 11.759062 
L 64.98 11.759062 
z
" style="fill: #ffffff"/>
   </g>
   <g id="matplotlib.axis_1">
    <g id="xtick_1">
     <g id="line2d_1">
      <defs>
       <path id="meabb5893c0" d="M 0 0 
L 0 -8 
" style="stroke: #000000; stroke-width: 1.2"/>
      </defs>
      <g>
       <use xlink:href="#meabb5893c0" x="64.98" y="382.979062" style="stroke: #000000; stroke-width: 1.2"/>
      </g>
     </g>
     <g id="line2d_2">
      <defs>
       <path id="m52edb51778" d="M 0 0 
L 0 8 
" style="stroke: #000000; stroke-width: 1.2"/>
      </defs>
      <g>
       <use xlink:href="#m52edb51778" x="64.98" y="11.759062" style="stroke: #000000; stroke-width: 1.2"/>
      </g>
     </g>
     <g id="text_1">
      <!-- 0 -->
      <g transform="translate(61.1625 395.597187) scale(0.12 -0.12)">
       <defs>
        <path id="DejaVuSans-30" d="M 2034 4250 
Q 1547 4250 1301 3770 
Q 1056 3291 1056 2328 
Q 1056 1369 1301 889 
Q 1547 409 2034 409 
Q 2525 409 2770 889 
Q 3016 1369 3016 2328 
Q 3016 3291 2770 3770 
Q 2525 4250 2034 4250 
z
M 2034 4750 
Q 2819 4750 3233 4129 
Q 3647 3509 3647 2328 
Q 3647 1150 3233 529 
Q 2819 -91 2034 -91 
Q 1250 -91 836 529 
Q 422 1150 422 2328 
Q 422 3509 836 4129 
Q 1250 4750 2034 4750 
z
" transform="scale(0.015625)"/>
       </defs>
       <use xlink:href="#DejaVuSans-30"/>
      </g>
     </g>
    </g>
    <g id="xtick_2">
     <g id="line2d_3">
      <g>
       <use xlink:href="#meabb5893c0" x="106.37961" y="382.979062" style="stroke: #000000; stroke-width: 1.2"/>
      </g>
     </g>
     <g id="line2d_4">
      <g>
       <use xlink:href="#m52edb51778" x="106.37961" y="11.759062" style="stroke: #000000; stroke-width: 1.2"/>
      </g>
     </g>
     <g id="text_2">
      <!-- 1 -->
      <g transform="translate(102.56211 395.597187) scale(0.12 -0.12)">
       <defs>
        <path id="DejaVuSans-31" d="M 794 531 
L 1825 531 
L 1825 4091 
L 703 3866 
L 703 4441 
L 1819 4666 
L 2450 4666 
L 2450 531 
L 3481 531 
L 3481 0 
L 794 0 
L 794 531 
z
" transform="scale(0.015625)"/>
       </defs>
       <use xlink:href="#DejaVuSans-31"/>
      </g>
     </g>
    </g>
    <g id="xtick_3">
     <g id="line2d_5">
      <g>
       <use xlink:href="#meabb5893c0" x="147.77922" y="382.979062" style="stroke: #000000; stroke-width: 1.2"/>
      </g>
     </g>
     <g id="line2d_6">
      <g>
       <use xlink:href="#m52edb51778" x="147.77922" y="11.759062" style="stroke: #000000; stroke-width: 1.2"/>
      </g>
     </g>
     <g id="text_3">
      <!-- 2 -->
      <g transform="translate(143.96172 395.597187) scale(0.12 -0.12)">
       <defs>
        <path id="DejaVuSans-32" d="M 1228 531 
L 3431 531 
L 3431 0 
L 469 0 
L 469 531 
Q 828 903 1448 1529 
Q 2069 2156 2228 2338 
Q 2531 2678 2651 2914 
Q 2772 3150 2772 3378 
Q 2772 3750 2511 3984 
Q 2250 4219 1831 4219 
Q 1534 4219 1204 4116 
Q 875 4013 500 3803 
L 500 4441 
Q 881 4594 1212 4672 
Q 1544 4750 1819 4750 
Q 2544 4750 2975 4387 
Q 3406 4025 3406 3419 
Q 3406 3131 3298 2873 
Q 3191 2616 2906 2266 
Q 2828 2175 2409 1742 
Q 1991 1309 1228 531 
z
" transform="scale(0.015625)"/>
       </defs>
       <use xlink:href="#DejaVuSans-32"/>
      </g>
     </g>
    </g>
    <g id="xtick_4">
     <g id="line2d_7">
      <g>
       <use xlink:href="#meabb5893c0" x="189.17883" y="382.979062" style="stroke: #000000; stroke-width: 1.2"/>
      </g>
     </g>
     <g id="line2d_8">
      <g>
       <use xlink:href="#m52edb51778" x="189.17883" y="11.759062" style="stroke: #000000; stroke-width: 1.2"/>
      </g>
     </g>
     <g id="text_4">
      <!-- 3 -->
      <g transform="translate(185.36133 395.597187) scale(0.12 -0.12)">
       <defs>
        <path id="DejaVuSans-33" d="M 2597 2516 
Q 3050 2419 3304 2112 
Q 3559 1806 3559 1356 
Q 3559 666 3084 287 
Q 2609 -91 1734 -91 
Q 1441 -91 1130 -33 
Q 819 25 488 141 
L 488 750 
Q 750 597 1062 519 
Q 1375 441 1716 441 
Q 2309 441 2620 675 
Q 2931 909 2931 1356 
Q 2931 1769 2642 2001 
Q 2353 2234 1838 2234 
L 1294 2234 
L 1294 2753 
L 1863 2753 
Q 2328 2753 2575 2939 
Q 2822 3125 2822 3475 
Q 2822 3834 2567 4026 
Q 2313 4219 1838 4219 
Q 1578 4219 1281 4162 
Q 984 4106 628 3988 
L 628 4550 
Q 988 4650 1302 4700 
Q 1616 4750 1894 4750 
Q 2613 4750 3031 4423 
Q 3450 4097 3450 3541 
Q 3450 3153 3228 2886 
Q 3006 2619 2597 2516 
z
" transform="scale(0.015625)"/>
       </defs>
       <use xlink:href="#DejaVuSans-33"/>
      </g>
     </g>
    </g>
    <g id="xtick_5">
     <g id="line2d_9">
      <g>
       <use xlink:href="#meabb5893c0" x="230.57844" y="382.979062" style="stroke: #000000; stroke-width: 1.2"/>
      </g>
     </g>
     <g id="line2d_10">
      <g>
       <use xlink:href="#m52edb51778" x="230.57844" y="11.759062" style="stroke: #000000; stroke-width: 1.2"/>
      </g>
     </g>
     <g id="text_5">
      <!-- 4 -->
      <g transform="translate(226.76094 395.597187) scale(0.12 -0.12)">
       <defs>
        <path id="DejaVuSans-34" d="M 2419 4116 
L 825 1625 
L 2419 1625 
L 2419 4116 
z
M 2253 4666 
L 3047 4666 
L 3047 1625 
L 3713 1625 
L 3713 1100 
L 3047 1100 
L 3047 0 
L 2419 0 
L 2419 1100 
L 313 1100 
L 313 1709 
L 2253 4666 
z
" transform="scale(0.015625)"/>
       </defs>
       <use xlink:href="#DejaVuSans-34"/>
      </g>
     </g>
    </g>
    <g id="xtick_6">
     <g id="line2d_11">
      <g>
       <use xlink:href="#meabb5893c0" x="271.97805" y="382.979062" style="stroke: #000000; stroke-width: 1.2"/>
      </g>
     </g>
     <g id="line2d_12">
      <g>
       <use xlink:href="#m52edb51778" x="271.97805" y="11.759062" style="stroke: #000000; stroke-width: 1.2"/>
      </g>
     </g>
     <g id="text_6">
      <!-- 5 -->
      <g transform="translate(268.16055 395.597187) scale(0.12 -0.12)">
       <defs>
        <path id="DejaVuSans-35" d="M 691 4666 
L 3169 4666 
L 3169 4134 
L 1269 4134 
L 1269 2991 
Q 1406 3038 1543 3061 
Q 1681 3084 1819 3084 
Q 2600 3084 3056 2656 
Q 3513 2228 3513 1497 
Q 3513 744 3044 326 
Q 2575 -91 1722 -91 
Q 1428 -91 1123 -41 
Q 819 9 494 109 
L 494 744 
Q 775 591 1075 516 
Q 1375 441 1709 441 
Q 2250 441 2565 725 
Q 2881 1009 2881 1497 
Q 2881 1984 2565 2268 
Q 2250 2553 1709 2553 
Q 1456 2553 1204 2497 
Q 953 2441 691 2322 
L 691 4666 
z
" transform="scale(0.015625)"/>
       </defs>
       <use xlink:href="#DejaVuSans-35"/>
      </g>
     </g>
    </g>
    <g id="xtick_7">
     <g id="line2d_13">
      <g>
       <use xlink:href="#meabb5893c0" x="313.37766" y="382.979062" style="stroke: #000000; stroke-width: 1.2"/>
      </g>
     </g>
     <g id="line2d_14">
      <g>
       <use xlink:href="#m52edb51778" x="313.37766" y="11.759062" style="stroke: #000000; stroke-width: 1.2"/>
      </g>
     </g>
     <g id="text_7">
      <!-- 6 -->
      <g transform="translate(309.56016 395.597187) scale(0.12 -0.12)">
       <defs>
        <path id="DejaVuSans-36" d="M 2113 2584 
Q 1688 2584 1439 2293 
Q 1191 2003 1191 1497 
Q 1191 994 1439 701 
Q 1688 409 2113 409 
Q 2538 409 2786 701 
Q 3034 994 3034 1497 
Q 3034 2003 2786 2293 
Q 2538 2584 2113 2584 
z
M 3366 4563 
L 3366 3988 
Q 3128 4100 2886 4159 
Q 2644 4219 2406 4219 
Q 1781 4219 1451 3797 
Q 1122 3375 1075 2522 
Q 1259 2794 1537 2939 
Q 1816 3084 2150 3084 
Q 2853 3084 3261 2657 
Q 3669 2231 3669 1497 
Q 3669 778 3244 343 
Q 2819 -91 2113 -91 
Q 1303 -91 875 529 
Q 447 1150 447 2328 
Q 447 3434 972 4092 
Q 1497 4750 2381 4750 
Q 2619 4750 2861 4703 
Q 3103 4656 3366 4563 
z
" transform="scale(0.015625)"/>
       </defs>
       <use xlink:href="#DejaVuSans-36"/>
      </g>
     </g>
    </g>
    <g id="xtick_8">
     <g id="line2d_15">
      <g>
       <use xlink:href="#meabb5893c0" x="354.77727" y="382.979062" style="stroke: #000000; stroke-width: 1.2"/>
      </g>
     </g>
     <g id="line2d_16">
      <g>
       <use xlink:href="#m52edb51778" x="354.77727" y="11.759062" style="stroke: #000000; stroke-width: 1.2"/>
      </g>
     </g>
     <g id="text_8">
      <!-- 7 -->
      <g transform="translate(350.95977 395.597187) scale(0.12 -0.12)">
       <defs>
        <path id="DejaVuSans-37" d="M 525 4666 
L 3525 4666 
L 3525 4397 
L 1831 0 
L 1172 0 
L 2766 4134 
L 525 4134 
L 525 4666 
z
" transform="scale(0.015625)"/>
       </defs>
       <use xlink:href="#DejaVuSans-37"/>
      </g>
     </g>
    </g>
    <g id="xtick_9">
     <g id="line2d_17">
      <g>
       <use xlink:href="#meabb5893c0" x="396.17688" y="382.979062" style="stroke: #000000; stroke-width: 1.2"/>
      </g>
     </g>
     <g id="line2d_18">
      <g>
       <use xlink:href="#m52edb51778" x="396.17688" y="11.759062" style="stroke: #000000; stroke-width: 1.2"/>
      </g>
     </g>
     <g id="text_9">
      <!-- 8 -->
      <g transform="translate(392.35938 395.597187) scale(0.12 -0.12)">
       <defs>
        <path id="DejaVuSans-38" d="M 2034 2216 
Q 1584 2216 1326 1975 
Q 1069 1734 1069 1313 
Q 1069 891 1326 650 
Q 1584 409 2034 409 
Q 2484 409 2743 651 
Q 3003 894 3003 1313 
Q 3003 1734 2745 1975 
Q 2488 2216 2034 2216 
z
M 1403 2484 
Q 997 2584 770 2862 
Q 544 3141 544 3541 
Q 544 4100 942 4425 
Q 1341 4750 2034 4750 
Q 2731 4750 3128 4425 
Q 3525 4100 3525 3541 
Q 3525 3141 3298 2862 
Q 3072 2584 2669 2484 
Q 3125 2378 3379 2068 
Q 3634 1759 3634 1313 
Q 3634 634 3220 271 
Q 2806 -91 2034 -91 
Q 1263 -91 848 271 
Q 434 634 434 1313 
Q 434 1759 690 2068 
Q 947 2378 1403 2484 
z
M 1172 3481 
Q 1172 3119 1398 2916 
Q 1625 2713 2034 2713 
Q 2441 2713 2670 2916 
Q 2900 3119 2900 3481 
Q 2900 3844 2670 4047 
Q 2441 4250 2034 4250 
Q 1625 4250 1398 4047 
Q 1172 3844 1172 3481 
z
" transform="scale(0.015625)"/>
       </defs>
       <use xlink:href="#DejaVuSans-38"/>
      </g>
     </g>
    </g>
    <g id="xtick_10">
     <g id="line2d_19">
      <g>
       <use xlink:href="#meabb5893c0" x="437.576489" y="382.979062" style="stroke: #000000; stroke-width: 1.2"/>
      </g>
     </g>
     <g id="line2d_20">
      <g>
       <use xlink:href="#m52edb51778" x="437.576489" y="11.759062" style="stroke: #000000; stroke-width: 1.2"/>
      </g>
     </g>
     <g id="text_10">
      <!-- 9 -->
      <g transform="translate(433.758989 395.597187) scale(0.12 -0.12)">
       <defs>
        <path id="DejaVuSans-39" d="M 703 97 
L 703 672 
Q 941 559 1184 500 
Q 1428 441 1663 441 
Q 2288 441 2617 861 
Q 2947 1281 2994 2138 
Q 2813 1869 2534 1725 
Q 2256 1581 1919 1581 
Q 1219 1581 811 2004 
Q 403 2428 403 3163 
Q 403 3881 828 4315 
Q 1253 4750 1959 4750 
Q 2769 4750 3195 4129 
Q 3622 3509 3622 2328 
Q 3622 1225 3098 567 
Q 2575 -91 1691 -91 
Q 1453 -91 1209 -44 
Q 966 3 703 97 
z
M 1959 2075 
Q 2384 2075 2632 2365 
Q 2881 2656 2881 3163 
Q 2881 3666 2632 3958 
Q 2384 4250 1959 4250 
Q 1534 4250 1286 3958 
Q 1038 3666 1038 3163 
Q 1038 2656 1286 2365 
Q 1534 2075 1959 2075 
z
" transform="scale(0.015625)"/>
       </defs>
       <use xlink:href="#DejaVuSans-39"/>
      </g>
     </g>
    </g>
    <g id="xtick_11">
     <g id="line2d_21">
      <g>
       <use xlink:href="#meabb5893c0" x="478.976099" y="382.979062" style="stroke: #000000; stroke-width: 1.2"/>
      </g>
     </g>
     <g id="line2d_22">
      <g>
       <use xlink:href="#m52edb51778" x="478.976099" y="11.759062" style="stroke: #000000; stroke-width: 1.2"/>
      </g>
     </g>
     <g id="text_11">
      <!-- 10 -->
      <g transform="translate(471.341099 395.597187) scale(0.12 -0.12)">
       <use xlink:href="#DejaVuSans-31"/>
       <use xlink:href="#DejaVuSans-30" x="63.623047"/>
      </g>
     </g>
    </g>
    <g id="xtick_12">
     <g id="line2d_23">
      <g>
       <use xlink:href="#meabb5893c0" x="520.375709" y="382.979062" style="stroke: #000000; stroke-width: 1.2"/>
      </g>
     </g>
     <g id="line2d_24">
      <g>
       <use xlink:href="#m52edb51778" x="520.375709" y="11.759062" style="stroke: #000000; stroke-width: 1.2"/>
      </g>
     </g>
     <g id="text_12">
      <!-- 11 -->
      <g transform="translate(512.740709 395.597187) scale(0.12 -0.12)">
       <use xlink:href="#DejaVuSans-31"/>
       <use xlink:href="#DejaVuSans-31" x="63.623047"/>
      </g>
     </g>
    </g>
    <g id="xtick_13">
     <g id="line2d_25">
      <g>
       <use xlink:href="#meabb5893c0" x="561.775319" y="382.979062" style="stroke: #000000; stroke-width: 1.2"/>
      </g>
     </g>
     <g id="line2d_26">
      <g>
       <use xlink:href="#m52edb51778" x="561.775319" y="11.759062" style="stroke: #000000; stroke-width: 1.2"/>
      </g>
     </g>
     <g id="text_13">
      <!-- 12 -->
      <g transform="translate(554.140319 395.597187) scale(0.12 -0.12)">
       <use xlink:href="#DejaVuSans-31"/>
       <use xlink:href="#DejaVuSans-32" x="63.623047"/>
      </g>
     </g>
    </g>
    <g id="xtick_14">
     <g id="line2d_27">
      <g>
       <use xlink:href="#meabb5893c0" x="603.174929" y="382.979062" style="stroke: #000000; stroke-width: 1.2"/>
      </g>
     </g>
     <g id="line2d_28">
      <g>
       <use xlink:href="#m52edb51778" x="603.174929" y="11.759062" style="stroke: #000000; stroke-width: 1.2"/>
      </g>
     </g>
     <g id="text_14">
      <!-- 13 -->
      <g transform="translate(595.539929 395.597187) scale(0.12 -0.12)">
       <use xlink:href="#DejaVuSans-31"/>
       <use xlink:href="#DejaVuSans-33" x="63.623047"/>
      </g>
     </g>
    </g>
    <g id="xtick_15">
     <g id="line2d_29">
      <g>
       <use xlink:href="#meabb5893c0" x="644.574539" y="382.979062" style="stroke: #000000; stroke-width: 1.2"/>
      </g>
     </g>
     <g id="line2d_30">
      <g>
       <use xlink:href="#m52edb51778" x="644.574539" y="11.759062" style="stroke: #000000; stroke-width: 1.2"/>
      </g>
     </g>
     <g id="text_15">
      <!-- 14 -->
      <g transform="translate(636.939539 395.597187) scale(0.12 -0.12)">
       <use xlink:href="#DejaVuSans-31"/>
       <use xlink:href="#DejaVuSans-34" x="63.623047"/>
      </g>
     </g>
    </g>
    <g id="xtick_16">
     <g id="line2d_31">
      <defs>
       <path id="m6c79fb40e3" d="M 0 0 
L 0 -4 
" style="stroke: #000000"/>
      </defs>
      <g>
       <use xlink:href="#m6c79fb40e3" x="73.259922" y="382.979062" style="stroke: #000000"/>
      </g>
     </g>
     <g id="line2d_32">
      <defs>
       <path id="mf03e4ca0dd" d="M 0 0 
L 0 4 
" style="stroke: #000000"/>
      </defs>
      <g>
       <use xlink:href="#mf03e4ca0dd" x="73.259922" y="11.759062" style="stroke: #000000"/>
      </g>
     </g>
    </g>
    <g id="xtick_17">
     <g id="line2d_33">
      <g>
       <use xlink:href="#m6c79fb40e3" x="81.539844" y="382.979062" style="stroke: #000000"/>
      </g>
     </g>
     <g id="line2d_34">
      <g>
       <use xlink:href="#mf03e4ca0dd" x="81.539844" y="11.759062" style="stroke: #000000"/>
      </g>
     </g>
    </g>
    <g id="xtick_18">
     <g id="line2d_35">
      <g>
       <use xlink:href="#m6c79fb40e3" x="89.819766" y="382.979062" style="stroke: #000000"/>
      </g>
     </g>
     <g id="line2d_36">
      <g>
       <use xlink:href="#mf03e4ca0dd" x="89.819766" y="11.759062" style="stroke: #000000"/>
      </g>
     </g>
    </g>
    <g id="xtick_19">
     <g id="line2d_37">
      <g>
       <use xlink:href="#m6c79fb40e3" x="98.099688" y="382.979062" style="stroke: #000000"/>
      </g>
     </g>
     <g id="line2d_38">
      <g>
       <use xlink:href="#mf03e4ca0dd" x="98.099688" y="11.759062" style="stroke: #000000"/>
      </g>
     </g>
    </g>
    <g id="xtick_20">
     <g id="line2d_39">
      <g>
       <use xlink:href="#m6c79fb40e3" x="114.659532" y="382.979062" style="stroke: #000000"/>
      </g>
     </g>
     <g id="line2d_40">
      <g>
       <use xlink:href="#mf03e4ca0dd" x="114.659532" y="11.759062" style="stroke: #000000"/>
      </g>
     </g>
    </g>
    <g id="xtick_21">
     <g id="line2d_41">
      <g>
       <use xlink:href="#m6c79fb40e3" x="122.939454" y="382.979062" style="stroke: #000000"/>
      </g>
     </g>
     <g id="line2d_42">
      <g>
       <use xlink:href="#mf03e4ca0dd" x="122.939454" y="11.759062" style="stroke: #000000"/>
      </g>
     </g>
    </g>
    <g id="xtick_22">
     <g id="line2d_43">
      <g>
       <use xlink:href="#m6c79fb40e3" x="131.219376" y="382.979062" style="stroke: #000000"/>
      </g>
     </g>
     <g id="line2d_44">
      <g>
       <use xlink:href="#mf03e4ca0dd" x="131.219376" y="11.759062" style="stroke: #000000"/>
      </g>
     </g>
    </g>
    <g id="xtick_23">
     <g id="line2d_45">
      <g>
       <use xlink:href="#m6c79fb40e3" x="139.499298" y="382.979062" style="stroke: #000000"/>
      </g>
     </g>
     <g id="line2d_46">
      <g>
       <use xlink:href="#mf03e4ca0dd" x="139.499298" y="11.759062" style="stroke: #000000"/>
      </g>
     </g>
    </g>
    <g id="xtick_24">
     <g id="line2d_47">
      <g>
       <use xlink:href="#m6c79fb40e3" x="156.059142" y="382.979062" style="stroke: #000000"/>
      </g>
     </g>
     <g id="line2d_48">
      <g>
       <use xlink:href="#mf03e4ca0dd" x="156.059142" y="11.759062" style="stroke: #000000"/>
      </g>
     </g>
    </g>
    <g id="xtick_25">
     <g id="line2d_49">
      <g>
       <use xlink:href="#m6c79fb40e3" x="164.339064" y="382.979062" style="stroke: #000000"/>
      </g>
     </g>
     <g id="line2d_50">
      <g>
       <use xlink:href="#mf03e4ca0dd" x="164.339064" y="11.759062" style="stroke: #000000"/>
      </g>
     </g>
    </g>
    <g id="xtick_26">
     <g id="line2d_51">
      <g>
       <use xlink:href="#m6c79fb40e3" x="172.618986" y="382.979062" style="stroke: #000000"/>
      </g>
     </g>
     <g id="line2d_52">
      <g>
       <use xlink:href="#mf03e4ca0dd" x="172.618986" y="11.759062" style="stroke: #000000"/>
      </g>
     </g>
    </g>
    <g id="xtick_27">
     <g id="line2d_53">
      <g>
       <use xlink:href="#m6c79fb40e3" x="180.898908" y="382.979062" style="stroke: #000000"/>
      </g>
     </g>
     <g id="line2d_54">
      <g>
       <use xlink:href="#mf03e4ca0dd" x="180.898908" y="11.759062" style="stroke: #000000"/>
      </g>
     </g>
    </g>
    <g id="xtick_28">
     <g id="line2d_55">
      <g>
       <use xlink:href="#m6c79fb40e3" x="197.458752" y="382.979062" style="stroke: #000000"/>
      </g>
     </g>
     <g id="line2d_56">
      <g>
       <use xlink:href="#mf03e4ca0dd" x="197.458752" y="11.759062" style="stroke: #000000"/>
      </g>
     </g>
    </g>
    <g id="xtick_29">
     <g id="line2d_57">
      <g>
       <use xlink:href="#m6c79fb40e3" x="205.738674" y="382.979062" style="stroke: #000000"/>
      </g>
     </g>
     <g id="line2d_58">
      <g>
       <use xlink:href="#mf03e4ca0dd" x="205.738674" y="11.759062" style="stroke: #000000"/>
      </g>
     </g>
    </g>
    <g id="xtick_30">
     <g id="line2d_59">
      <g>
       <use xlink:href="#m6c79fb40e3" x="214.018596" y="382.979062" style="stroke: #000000"/>
      </g>
     </g>
     <g id="line2d_60">
      <g>
       <use xlink:href="#mf03e4ca0dd" x="214.018596" y="11.759062" style="stroke: #000000"/>
      </g>
     </g>
    </g>
    <g id="xtick_31">
     <g id="line2d_61">
      <g>
       <use xlink:href="#m6c79fb40e3" x="222.298518" y="382.979062" style="stroke: #000000"/>
      </g>
     </g>
     <g id="line2d_62">
      <g>
       <use xlink:href="#mf03e4ca0dd" x="222.298518" y="11.759062" style="stroke: #000000"/>
      </g>
     </g>
    </g>
    <g id="xtick_32">
     <g id="line2d_63">
      <g>
       <use xlink:href="#m6c79fb40e3" x="238.858362" y="382.979062" style="stroke: #000000"/>
      </g>
     </g>
     <g id="line2d_64">
      <g>
       <use xlink:href="#mf03e4ca0dd" x="238.858362" y="11.759062" style="stroke: #000000"/>
      </g>
     </g>
    </g>
    <g id="xtick_33">
     <g id="line2d_65">
      <g>
       <use xlink:href="#m6c79fb40e3" x="247.138284" y="382.979062" style="stroke: #000000"/>
      </g>
     </g>
     <g id="line2d_66">
      <g>
       <use xlink:href="#mf03e4ca0dd" x="247.138284" y="11.759062" style="stroke: #000000"/>
      </g>
     </g>
    </g>
    <g id="xtick_34">
     <g id="line2d_67">
      <g>
       <use xlink:href="#m6c79fb40e3" x="255.418206" y="382.979062" style="stroke: #000000"/>
      </g>
     </g>
     <g id="line2d_68">
      <g>
       <use xlink:href="#mf03e4ca0dd" x="255.418206" y="11.759062" style="stroke: #000000"/>
      </g>
     </g>
    </g>
    <g id="xtick_35">
     <g id="line2d_69">
      <g>
       <use xlink:href="#m6c79fb40e3" x="263.698128" y="382.979062" style="stroke: #000000"/>
      </g>
     </g>
     <g id="line2d_70">
      <g>
       <use xlink:href="#mf03e4ca0dd" x="263.698128" y="11.759062" style="stroke: #000000"/>
      </g>
     </g>
    </g>
    <g id="xtick_36">
     <g id="line2d_71">
      <g>
       <use xlink:href="#m6c79fb40e3" x="280.257972" y="382.979062" style="stroke: #000000"/>
      </g>
     </g>
     <g id="line2d_72">
      <g>
       <use xlink:href="#mf03e4ca0dd" x="280.257972" y="11.759062" style="stroke: #000000"/>
      </g>
     </g>
    </g>
    <g id="xtick_37">
     <g id="line2d_73">
      <g>
       <use xlink:href="#m6c79fb40e3" x="288.537894" y="382.979062" style="stroke: #000000"/>
      </g>
     </g>
     <g id="line2d_74">
      <g>
       <use xlink:href="#mf03e4ca0dd" x="288.537894" y="11.759062" style="stroke: #000000"/>
      </g>
     </g>
    </g>
    <g id="xtick_38">
     <g id="line2d_75">
      <g>
       <use xlink:href="#m6c79fb40e3" x="296.817816" y="382.979062" style="stroke: #000000"/>
      </g>
     </g>
     <g id="line2d_76">
      <g>
       <use xlink:href="#mf03e4ca0dd" x="296.817816" y="11.759062" style="stroke: #000000"/>
      </g>
     </g>
    </g>
    <g id="xtick_39">
     <g id="line2d_77">
      <g>
       <use xlink:href="#m6c79fb40e3" x="305.097738" y="382.979062" style="stroke: #000000"/>
      </g>
     </g>
     <g id="line2d_78">
      <g>
       <use xlink:href="#mf03e4ca0dd" x="305.097738" y="11.759062" style="stroke: #000000"/>
      </g>
     </g>
    </g>
    <g id="xtick_40">
     <g id="line2d_79">
      <g>
       <use xlink:href="#m6c79fb40e3" x="321.657582" y="382.979062" style="stroke: #000000"/>
      </g>
     </g>
     <g id="line2d_80">
      <g>
       <use xlink:href="#mf03e4ca0dd" x="321.657582" y="11.759062" style="stroke: #000000"/>
      </g>
     </g>
    </g>
    <g id="xtick_41">
     <g id="line2d_81">
      <g>
       <use xlink:href="#m6c79fb40e3" x="329.937504" y="382.979062" style="stroke: #000000"/>
      </g>
     </g>
     <g id="line2d_82">
      <g>
       <use xlink:href="#mf03e4ca0dd" x="329.937504" y="11.759062" style="stroke: #000000"/>
      </g>
     </g>
    </g>
    <g id="xtick_42">
     <g id="line2d_83">
      <g>
       <use xlink:href="#m6c79fb40e3" x="338.217426" y="382.979062" style="stroke: #000000"/>
      </g>
     </g>
     <g id="line2d_84">
      <g>
       <use xlink:href="#mf03e4ca0dd" x="338.217426" y="11.759062" style="stroke: #000000"/>
      </g>
     </g>
    </g>
    <g id="xtick_43">
     <g id="line2d_85">
      <g>
       <use xlink:href="#m6c79fb40e3" x="346.497348" y="382.979062" style="stroke: #000000"/>
      </g>
     </g>
     <g id="line2d_86">
      <g>
       <use xlink:href="#mf03e4ca0dd" x="346.497348" y="11.759062" style="stroke: #000000"/>
      </g>
     </g>
    </g>
    <g id="xtick_44">
     <g id="line2d_87">
      <g>
       <use xlink:href="#m6c79fb40e3" x="363.057192" y="382.979062" style="stroke: #000000"/>
      </g>
     </g>
     <g id="line2d_88">
      <g>
       <use xlink:href="#mf03e4ca0dd" x="363.057192" y="11.759062" style="stroke: #000000"/>
      </g>
     </g>
    </g>
    <g id="xtick_45">
     <g id="line2d_89">
      <g>
       <use xlink:href="#m6c79fb40e3" x="371.337114" y="382.979062" style="stroke: #000000"/>
      </g>
     </g>
     <g id="line2d_90">
      <g>
       <use xlink:href="#mf03e4ca0dd" x="371.337114" y="11.759062" style="stroke: #000000"/>
      </g>
     </g>
    </g>
    <g id="xtick_46">
     <g id="line2d_91">
      <g>
       <use xlink:href="#m6c79fb40e3" x="379.617036" y="382.979062" style="stroke: #000000"/>
      </g>
     </g>
     <g id="line2d_92">
      <g>
       <use xlink:href="#mf03e4ca0dd" x="379.617036" y="11.759062" style="stroke: #000000"/>
      </g>
     </g>
    </g>
    <g id="xtick_47">
     <g id="line2d_93">
      <g>
       <use xlink:href="#m6c79fb40e3" x="387.896958" y="382.979062" style="stroke: #000000"/>
      </g>
     </g>
     <g id="line2d_94">
      <g>
       <use xlink:href="#mf03e4ca0dd" x="387.896958" y="11.759062" style="stroke: #000000"/>
      </g>
     </g>
    </g>
    <g id="xtick_48">
     <g id="line2d_95">
      <g>
       <use xlink:href="#m6c79fb40e3" x="404.456802" y="382.979062" style="stroke: #000000"/>
      </g>
     </g>
     <g id="line2d_96">
      <g>
       <use xlink:href="#mf03e4ca0dd" x="404.456802" y="11.759062" style="stroke: #000000"/>
      </g>
     </g>
    </g>
    <g id="xtick_49">
     <g id="line2d_97">
      <g>
       <use xlink:href="#m6c79fb40e3" x="412.736724" y="382.979062" style="stroke: #000000"/>
      </g>
     </g>
     <g id="line2d_98">
      <g>
       <use xlink:href="#mf03e4ca0dd" x="412.736724" y="11.759062" style="stroke: #000000"/>
      </g>
     </g>
    </g>
    <g id="xtick_50">
     <g id="line2d_99">
      <g>
       <use xlink:href="#m6c79fb40e3" x="421.016646" y="382.979062" style="stroke: #000000"/>
      </g>
     </g>
     <g id="line2d_100">
      <g>
       <use xlink:href="#mf03e4ca0dd" x="421.016646" y="11.759062" style="stroke: #000000"/>
      </g>
     </g>
    </g>
    <g id="xtick_51">
     <g id="line2d_101">
      <g>
       <use xlink:href="#m6c79fb40e3" x="429.296568" y="382.979062" style="stroke: #000000"/>
      </g>
     </g>
     <g id="line2d_102">
      <g>
       <use xlink:href="#mf03e4ca0dd" x="429.296568" y="11.759062" style="stroke: #000000"/>
      </g>
     </g>
    </g>
    <g id="xtick_52">
     <g id="line2d_103">
      <g>
       <use xlink:href="#m6c79fb40e3" x="445.856411" y="382.979062" style="stroke: #000000"/>
      </g>
     </g>
     <g id="line2d_104">
      <g>
       <use xlink:href="#mf03e4ca0dd" x="445.856411" y="11.759062" style="stroke: #000000"/>
      </g>
     </g>
    </g>
    <g id="xtick_53">
     <g id="line2d_105">
      <g>
       <use xlink:href="#m6c79fb40e3" x="454.136333" y="382.979062" style="stroke: #000000"/>
      </g>
     </g>
     <g id="line2d_106">
      <g>
       <use xlink:href="#mf03e4ca0dd" x="454.136333" y="11.759062" style="stroke: #000000"/>
      </g>
     </g>
    </g>
    <g id="xtick_54">
     <g id="line2d_107">
      <g>
       <use xlink:href="#m6c79fb40e3" x="462.416255" y="382.979062" style="stroke: #000000"/>
      </g>
     </g>
     <g id="line2d_108">
      <g>
       <use xlink:href="#mf03e4ca0dd" x="462.416255" y="11.759062" style="stroke: #000000"/>
      </g>
     </g>
    </g>
    <g id="xtick_55">
     <g id="line2d_109">
      <g>
       <use xlink:href="#m6c79fb40e3" x="470.696177" y="382.979062" style="stroke: #000000"/>
      </g>
     </g>
     <g id="line2d_110">
      <g>
       <use xlink:href="#mf03e4ca0dd" x="470.696177" y="11.759062" style="stroke: #000000"/>
      </g>
     </g>
    </g>
    <g id="xtick_56">
     <g id="line2d_111">
      <g>
       <use xlink:href="#m6c79fb40e3" x="487.256021" y="382.979062" style="stroke: #000000"/>
      </g>
     </g>
     <g id="line2d_112">
      <g>
       <use xlink:href="#mf03e4ca0dd" x="487.256021" y="11.759062" style="stroke: #000000"/>
      </g>
     </g>
    </g>
    <g id="xtick_57">
     <g id="line2d_113">
      <g>
       <use xlink:href="#m6c79fb40e3" x="495.535943" y="382.979062" style="stroke: #000000"/>
      </g>
     </g>
     <g id="line2d_114">
      <g>
       <use xlink:href="#mf03e4ca0dd" x="495.535943" y="11.759062" style="stroke: #000000"/>
      </g>
     </g>
    </g>
    <g id="xtick_58">
     <g id="line2d_115">
      <g>
       <use xlink:href="#m6c79fb40e3" x="503.815865" y="382.979062" style="stroke: #000000"/>
      </g>
     </g>
     <g id="line2d_116">
      <g>
       <use xlink:href="#mf03e4ca0dd" x="503.815865" y="11.759062" style="stroke: #000000"/>
      </g>
     </g>
    </g>
    <g id="xtick_59">
     <g id="line2d_117">
      <g>
       <use xlink:href="#m6c79fb40e3" x="512.095787" y="382.979062" style="stroke: #000000"/>
      </g>
     </g>
     <g id="line2d_118">
      <g>
       <use xlink:href="#mf03e4ca0dd" x="512.095787" y="11.759062" style="stroke: #000000"/>
      </g>
     </g>
    </g>
    <g id="xtick_60">
     <g id="line2d_119">
      <g>
       <use xlink:href="#m6c79fb40e3" x="528.655631" y="382.979062" style="stroke: #000000"/>
      </g>
     </g>
     <g id="line2d_120">
      <g>
       <use xlink:href="#mf03e4ca0dd" x="528.655631" y="11.759062" style="stroke: #000000"/>
      </g>
     </g>
    </g>
    <g id="xtick_61">
     <g id="line2d_121">
      <g>
       <use xlink:href="#m6c79fb40e3" x="536.935553" y="382.979062" style="stroke: #000000"/>
      </g>
     </g>
     <g id="line2d_122">
      <g>
       <use xlink:href="#mf03e4ca0dd" x="536.935553" y="11.759062" style="stroke: #000000"/>
      </g>
     </g>
    </g>
    <g id="xtick_62">
     <g id="line2d_123">
      <g>
       <use xlink:href="#m6c79fb40e3" x="545.215475" y="382.979062" style="stroke: #000000"/>
      </g>
     </g>
     <g id="line2d_124">
      <g>
       <use xlink:href="#mf03e4ca0dd" x="545.215475" y="11.759062" style="stroke: #000000"/>
      </g>
     </g>
    </g>
    <g id="xtick_63">
     <g id="line2d_125">
      <g>
       <use xlink:href="#m6c79fb40e3" x="553.495397" y="382.979062" style="stroke: #000000"/>
      </g>
     </g>
     <g id="line2d_126">
      <g>
       <use xlink:href="#mf03e4ca0dd" x="553.495397" y="11.759062" style="stroke: #000000"/>
      </g>
     </g>
    </g>
    <g id="xtick_64">
     <g id="line2d_127">
      <g>
       <use xlink:href="#m6c79fb40e3" x="570.055241" y="382.979062" style="stroke: #000000"/>
      </g>
     </g>
     <g id="line2d_128">
      <g>
       <use xlink:href="#mf03e4ca0dd" x="570.055241" y="11.759062" style="stroke: #000000"/>
      </g>
     </g>
    </g>
    <g id="xtick_65">
     <g id="line2d_129">
      <g>
       <use xlink:href="#m6c79fb40e3" x="578.335163" y="382.979062" style="stroke: #000000"/>
      </g>
     </g>
     <g id="line2d_130">
      <g>
       <use xlink:href="#mf03e4ca0dd" x="578.335163" y="11.759062" style="stroke: #000000"/>
      </g>
     </g>
    </g>
    <g id="xtick_66">
     <g id="line2d_131">
      <g>
       <use xlink:href="#m6c79fb40e3" x="586.615085" y="382.979062" style="stroke: #000000"/>
      </g>
     </g>
     <g id="line2d_132">
      <g>
       <use xlink:href="#mf03e4ca0dd" x="586.615085" y="11.759062" style="stroke: #000000"/>
      </g>
     </g>
    </g>
    <g id="xtick_67">
     <g id="line2d_133">
      <g>
       <use xlink:href="#m6c79fb40e3" x="594.895007" y="382.979062" style="stroke: #000000"/>
      </g>
     </g>
     <g id="line2d_134">
      <g>
       <use xlink:href="#mf03e4ca0dd" x="594.895007" y="11.759062" style="stroke: #000000"/>
      </g>
     </g>
    </g>
    <g id="xtick_68">
     <g id="line2d_135">
      <g>
       <use xlink:href="#m6c79fb40e3" x="611.454851" y="382.979062" style="stroke: #000000"/>
      </g>
     </g>
     <g id="line2d_136">
      <g>
       <use xlink:href="#mf03e4ca0dd" x="611.454851" y="11.759062" style="stroke: #000000"/>
      </g>
     </g>
    </g>
    <g id="xtick_69">
     <g id="line2d_137">
      <g>
       <use xlink:href="#m6c79fb40e3" x="619.734773" y="382.979062" style="stroke: #000000"/>
      </g>
     </g>
     <g id="line2d_138">
      <g>
       <use xlink:href="#mf03e4ca0dd" x="619.734773" y="11.759062" style="stroke: #000000"/>
      </g>
     </g>
    </g>
    <g id="xtick_70">
     <g id="line2d_139">
      <g>
       <use xlink:href="#m6c79fb40e3" x="628.014695" y="382.979062" style="stroke: #000000"/>
      </g>
     </g>
     <g id="line2d_140">
      <g>
       <use xlink:href="#mf03e4ca0dd" x="628.014695" y="11.759062" style="stroke: #000000"/>
      </g>
     </g>
    </g>
    <g id="xtick_71">
     <g id="line2d_141">
      <g>
       <use xlink:href="#m6c79fb40e3" x="636.294617" y="382.979062" style="stroke: #000000"/>
      </g>
     </g>
     <g id="line2d_142">
      <g>
       <use xlink:href="#mf03e4ca0dd" x="636.294617" y="11.759062" style="stroke: #000000"/>
      </g>
     </g>
    </g>
    <g id="text_16">
     <!-- $r$ $\left[km\right]$ -->
     <g transform="translate(331.75227 413.490469) scale(0.15 -0.15)">
      <defs>
       <path id="DejaVuSans-Oblique-72" d="M 2853 2969 
Q 2766 3016 2653 3041 
Q 2541 3066 2413 3066 
Q 1953 3066 1609 2717 
Q 1266 2369 1153 1784 
L 800 0 
L 225 0 
L 909 3500 
L 1484 3500 
L 1375 2956 
Q 1603 3259 1920 3421 
Q 2238 3584 2597 3584 
Q 2691 3584 2781 3573 
Q 2872 3563 2963 3538 
L 2853 2969 
z
" transform="scale(0.015625)"/>
       <path id="DejaVuSans-20" transform="scale(0.015625)"/>
       <path id="DejaVuSans-5b" d="M 550 4863 
L 1875 4863 
L 1875 4416 
L 1125 4416 
L 1125 -397 
L 1875 -397 
L 1875 -844 
L 550 -844 
L 550 4863 
z
" transform="scale(0.015625)"/>
       <path id="DejaVuSans-Oblique-6b" d="M 1172 4863 
L 1747 4863 
L 1197 2028 
L 3169 3500 
L 3916 3500 
L 1716 1825 
L 3322 0 
L 2625 0 
L 1131 1709 
L 800 0 
L 225 0 
L 1172 4863 
z
" transform="scale(0.015625)"/>
       <path id="DejaVuSans-Oblique-6d" d="M 5747 2113 
L 5338 0 
L 4763 0 
L 5166 2094 
Q 5191 2228 5203 2325 
Q 5216 2422 5216 2491 
Q 5216 2772 5059 2928 
Q 4903 3084 4622 3084 
Q 4203 3084 3875 2770 
Q 3547 2456 3450 1953 
L 3066 0 
L 2491 0 
L 2900 2094 
Q 2925 2209 2937 2307 
Q 2950 2406 2950 2484 
Q 2950 2769 2794 2926 
Q 2638 3084 2363 3084 
Q 1938 3084 1609 2770 
Q 1281 2456 1184 1953 
L 800 0 
L 225 0 
L 909 3500 
L 1484 3500 
L 1375 2956 
Q 1609 3263 1923 3423 
Q 2238 3584 2597 3584 
Q 2978 3584 3223 3384 
Q 3469 3184 3519 2828 
Q 3781 3197 4126 3390 
Q 4472 3584 4856 3584 
Q 5306 3584 5551 3325 
Q 5797 3066 5797 2591 
Q 5797 2488 5784 2364 
Q 5772 2241 5747 2113 
z
" transform="scale(0.015625)"/>
       <path id="DejaVuSans-5d" d="M 1947 4863 
L 1947 -844 
L 622 -844 
L 622 -397 
L 1369 -397 
L 1369 4416 
L 622 4416 
L 622 4863 
L 1947 4863 
z
" transform="scale(0.015625)"/>
      </defs>
      <use xlink:href="#DejaVuSans-Oblique-72" transform="translate(0 0.015625)"/>
      <use xlink:href="#DejaVuSans-20" transform="translate(41.113281 0.015625)"/>
      <use xlink:href="#DejaVuSans-5b" transform="translate(72.900391 0.015625)"/>
      <use xlink:href="#DejaVuSans-Oblique-6b" transform="translate(111.914062 0.015625)"/>
      <use xlink:href="#DejaVuSans-Oblique-6d" transform="translate(169.824219 0.015625)"/>
      <use xlink:href="#DejaVuSans-5d" transform="translate(267.236328 0.015625)"/>
     </g>
    </g>
   </g>
   <g id="matplotlib.axis_2">
    <g id="ytick_1">
     <g id="line2d_143">
      <defs>
       <path id="mf6684cd4e6" d="M 0 0 
L 8 0 
" style="stroke: #000000; stroke-width: 1.2"/>
      </defs>
      <g>
       <use xlink:href="#mf6684cd4e6" x="64.98" y="382.979062" style="stroke: #000000; stroke-width: 1.2"/>
      </g>
     </g>
     <g id="text_17">
      <!-- $\mathdefault{10^{-14}}$ -->
      <g transform="translate(28 387.538125) scale(0.12 -0.12)">
       <defs>
        <path id="DejaVuSans-2212" d="M 678 2272 
L 4684 2272 
L 4684 1741 
L 678 1741 
L 678 2272 
z
" transform="scale(0.015625)"/>
       </defs>
       <use xlink:href="#DejaVuSans-31" transform="translate(0 0.684375)"/>
       <use xlink:href="#DejaVuSans-30" transform="translate(63.623047 0.684375)"/>
       <use xlink:href="#DejaVuSans-2212" transform="translate(128.203125 38.965625) scale(0.7)"/>
       <use xlink:href="#DejaVuSans-31" transform="translate(186.855469 38.965625) scale(0.7)"/>
       <use xlink:href="#DejaVuSans-34" transform="translate(231.391602 38.965625) scale(0.7)"/>
      </g>
     </g>
    </g>
    <g id="ytick_2">
     <g id="line2d_144">
      <g>
       <use xlink:href="#mf6684cd4e6" x="64.98" y="346.94189" style="stroke: #000000; stroke-width: 1.2"/>
      </g>
     </g>
     <g id="text_18">
      <!-- $\mathdefault{10^{-13}}$ -->
      <g transform="translate(28 351.500952) scale(0.12 -0.12)">
       <use xlink:href="#DejaVuSans-31" transform="translate(0 0.765625)"/>
       <use xlink:href="#DejaVuSans-30" transform="translate(63.623047 0.765625)"/>
       <use xlink:href="#DejaVuSans-2212" transform="translate(128.203125 39.046875) scale(0.7)"/>
       <use xlink:href="#DejaVuSans-31" transform="translate(186.855469 39.046875) scale(0.7)"/>
       <use xlink:href="#DejaVuSans-33" transform="translate(231.391602 39.046875) scale(0.7)"/>
      </g>
     </g>
    </g>
    <g id="ytick_3">
     <g id="line2d_145">
      <g>
       <use xlink:href="#mf6684cd4e6" x="64.98" y="310.904717" style="stroke: #000000; stroke-width: 1.2"/>
      </g>
     </g>
     <g id="text_19">
      <!-- $\mathdefault{10^{-12}}$ -->
      <g transform="translate(28 315.463779) scale(0.12 -0.12)">
       <use xlink:href="#DejaVuSans-31" transform="translate(0 0.765625)"/>
       <use xlink:href="#DejaVuSans-30" transform="translate(63.623047 0.765625)"/>
       <use xlink:href="#DejaVuSans-2212" transform="translate(128.203125 39.046875) scale(0.7)"/>
       <use xlink:href="#DejaVuSans-31" transform="translate(186.855469 39.046875) scale(0.7)"/>
       <use xlink:href="#DejaVuSans-32" transform="translate(231.391602 39.046875) scale(0.7)"/>
      </g>
     </g>
    </g>
    <g id="ytick_4">
     <g id="line2d_146">
      <g>
       <use xlink:href="#mf6684cd4e6" x="64.98" y="274.867544" style="stroke: #000000; stroke-width: 1.2"/>
      </g>
     </g>
     <g id="text_20">
      <!-- $\mathdefault{10^{-11}}$ -->
      <g transform="translate(28 279.426606) scale(0.12 -0.12)">
       <use xlink:href="#DejaVuSans-31" transform="translate(0 0.684375)"/>
       <use xlink:href="#DejaVuSans-30" transform="translate(63.623047 0.684375)"/>
       <use xlink:href="#DejaVuSans-2212" transform="translate(128.203125 38.965625) scale(0.7)"/>
       <use xlink:href="#DejaVuSans-31" transform="translate(186.855469 38.965625) scale(0.7)"/>
       <use xlink:href="#DejaVuSans-31" transform="translate(231.391602 38.965625) scale(0.7)"/>
      </g>
     </g>
    </g>
    <g id="ytick_5">
     <g id="line2d_147">
      <g>
       <use xlink:href="#mf6684cd4e6" x="64.98" y="238.830371" style="stroke: #000000; stroke-width: 1.2"/>
      </g>
     </g>
     <g id="text_21">
      <!-- $\mathdefault{10^{-10}}$ -->
      <g transform="translate(28 243.389433) scale(0.12 -0.12)">
       <use xlink:href="#DejaVuSans-31" transform="translate(0 0.765625)"/>
       <use xlink:href="#DejaVuSans-30" transform="translate(63.623047 0.765625)"/>
       <use xlink:href="#DejaVuSans-2212" transform="translate(128.203125 39.046875) scale(0.7)"/>
       <use xlink:href="#DejaVuSans-31" transform="translate(186.855469 39.046875) scale(0.7)"/>
       <use xlink:href="#DejaVuSans-30" transform="translate(231.391602 39.046875) scale(0.7)"/>
      </g>
     </g>
    </g>
    <g id="ytick_6">
     <g id="line2d_148">
      <g>
       <use xlink:href="#mf6684cd4e6" x="64.98" y="202.793198" style="stroke: #000000; stroke-width: 1.2"/>
      </g>
     </g>
     <g id="text_22">
      <!-- $\mathdefault{10^{-9}}$ -->
      <g transform="translate(33.28 207.35226) scale(0.12 -0.12)">
       <use xlink:href="#DejaVuSans-31" transform="translate(0 0.765625)"/>
       <use xlink:href="#DejaVuSans-30" transform="translate(63.623047 0.765625)"/>
       <use xlink:href="#DejaVuSans-2212" transform="translate(128.203125 39.046875) scale(0.7)"/>
       <use xlink:href="#DejaVuSans-39" transform="translate(186.855469 39.046875) scale(0.7)"/>
      </g>
     </g>
    </g>
    <g id="ytick_7">
     <g id="line2d_149">
      <g>
       <use xlink:href="#mf6684cd4e6" x="64.98" y="166.756025" style="stroke: #000000; stroke-width: 1.2"/>
      </g>
     </g>
     <g id="text_23">
      <!-- $\mathdefault{10^{-8}}$ -->
      <g transform="translate(33.28 171.315087) scale(0.12 -0.12)">
       <use xlink:href="#DejaVuSans-31" transform="translate(0 0.765625)"/>
       <use xlink:href="#DejaVuSans-30" transform="translate(63.623047 0.765625)"/>
       <use xlink:href="#DejaVuSans-2212" transform="translate(128.203125 39.046875) scale(0.7)"/>
       <use xlink:href="#DejaVuSans-38" transform="translate(186.855469 39.046875) scale(0.7)"/>
      </g>
     </g>
    </g>
    <g id="ytick_8">
     <g id="line2d_150">
      <g>
       <use xlink:href="#mf6684cd4e6" x="64.98" y="130.718852" style="stroke: #000000; stroke-width: 1.2"/>
      </g>
     </g>
     <g id="text_24">
      <!-- $\mathdefault{10^{-7}}$ -->
      <g transform="translate(33.28 135.277914) scale(0.12 -0.12)">
       <use xlink:href="#DejaVuSans-31" transform="translate(0 0.684375)"/>
       <use xlink:href="#DejaVuSans-30" transform="translate(63.623047 0.684375)"/>
       <use xlink:href="#DejaVuSans-2212" transform="translate(128.203125 38.965625) scale(0.7)"/>
       <use xlink:href="#DejaVuSans-37" transform="translate(186.855469 38.965625) scale(0.7)"/>
      </g>
     </g>
    </g>
    <g id="ytick_9">
     <g id="line2d_151">
      <g>
       <use xlink:href="#mf6684cd4e6" x="64.98" y="94.681679" style="stroke: #000000; stroke-width: 1.2"/>
      </g>
     </g>
     <g id="text_25">
      <!-- $\mathdefault{10^{-6}}$ -->
      <g transform="translate(33.28 99.240741) scale(0.12 -0.12)">
       <use xlink:href="#DejaVuSans-31" transform="translate(0 0.765625)"/>
       <use xlink:href="#DejaVuSans-30" transform="translate(63.623047 0.765625)"/>
       <use xlink:href="#DejaVuSans-2212" transform="translate(128.203125 39.046875) scale(0.7)"/>
       <use xlink:href="#DejaVuSans-36" transform="translate(186.855469 39.046875) scale(0.7)"/>
      </g>
     </g>
    </g>
    <g id="ytick_10">
     <g id="line2d_152">
      <g>
       <use xlink:href="#mf6684cd4e6" x="64.98" y="58.644506" style="stroke: #000000; stroke-width: 1.2"/>
      </g>
     </g>
     <g id="text_26">
      <!-- $\mathdefault{10^{-5}}$ -->
      <g transform="translate(33.28 63.203568) scale(0.12 -0.12)">
       <use xlink:href="#DejaVuSans-31" transform="translate(0 0.684375)"/>
       <use xlink:href="#DejaVuSans-30" transform="translate(63.623047 0.684375)"/>
       <use xlink:href="#DejaVuSans-2212" transform="translate(128.203125 38.965625) scale(0.7)"/>
       <use xlink:href="#DejaVuSans-35" transform="translate(186.855469 38.965625) scale(0.7)"/>
      </g>
     </g>
    </g>
    <g id="ytick_11">
     <g id="line2d_153">
      <g>
       <use xlink:href="#mf6684cd4e6" x="64.98" y="22.607333" style="stroke: #000000; stroke-width: 1.2"/>
      </g>
     </g>
     <g id="text_27">
      <!-- $\mathdefault{10^{-4}}$ -->
      <g transform="translate(33.28 27.166395) scale(0.12 -0.12)">
       <use xlink:href="#DejaVuSans-31" transform="translate(0 0.684375)"/>
       <use xlink:href="#DejaVuSans-30" transform="translate(63.623047 0.684375)"/>
       <use xlink:href="#DejaVuSans-2212" transform="translate(128.203125 38.965625) scale(0.7)"/>
       <use xlink:href="#DejaVuSans-34" transform="translate(186.855469 38.965625) scale(0.7)"/>
      </g>
     </g>
    </g>
    <g id="text_28">
     <!-- $p$ $\left[ M_{\odot} / km^3 \right]$ -->
     <g transform="translate(20.85 238.694062) rotate(-90) scale(0.15 -0.15)">
      <defs>
       <path id="DejaVuSans-Oblique-70" d="M 3175 2156 
Q 3175 2616 2975 2859 
Q 2775 3103 2400 3103 
Q 2144 3103 1911 2972 
Q 1678 2841 1497 2591 
Q 1319 2344 1212 1994 
Q 1106 1644 1106 1300 
Q 1106 863 1306 627 
Q 1506 391 1875 391 
Q 2147 391 2380 519 
Q 2613 647 2778 891 
Q 2956 1147 3065 1494 
Q 3175 1841 3175 2156 
z
M 1394 2969 
Q 1625 3272 1939 3428 
Q 2253 3584 2638 3584 
Q 3175 3584 3472 3232 
Q 3769 2881 3769 2247 
Q 3769 1728 3584 1258 
Q 3400 788 3053 416 
Q 2822 169 2531 39 
Q 2241 -91 1919 -91 
Q 1547 -91 1294 64 
Q 1041 219 916 525 
L 556 -1331 
L -19 -1331 
L 922 3500 
L 1497 3500 
L 1394 2969 
z
" transform="scale(0.015625)"/>
       <path id="STIXSizeOneSym-Regular-5b" d="M 2323 -1050 
L 1152 -1050 
L 1152 6822 
L 2323 6822 
L 2323 6611 
L 1600 6611 
L 1600 -838 
L 2323 -838 
L 2323 -1050 
z
" transform="scale(0.015625)"/>
       <path id="DejaVuSans-Oblique-4d" d="M 1081 4666 
L 2028 4666 
L 2572 1522 
L 4378 4666 
L 5350 4666 
L 4441 0 
L 3828 0 
L 4622 4091 
L 2791 897 
L 2175 897 
L 1581 4103 
L 788 0 
L 172 0 
L 1081 4666 
z
" transform="scale(0.015625)"/>
       <path id="DejaVuSans-2299" d="M 2350 2403 
L 3013 2403 
L 3013 1609 
L 2350 1609 
L 2350 2403 
z
M 3306 3522 
Q 3016 3644 2681 3644 
Q 2347 3644 2056 3522 
Q 1769 3400 1531 3163 
Q 1291 2922 1172 2634 
Q 1053 2347 1053 2006 
Q 1053 1675 1172 1387 
Q 1291 1100 1531 859 
Q 1769 622 2056 500 
Q 2347 378 2681 378 
Q 3016 378 3306 500 
Q 3594 622 3831 859 
Q 4072 1100 4190 1387 
Q 4309 1675 4309 2006 
Q 4309 2347 4190 2634 
Q 4072 2922 3831 3163 
Q 3594 3400 3306 3522 
z
M 1878 3956 
Q 2250 4113 2681 4113 
Q 3113 4113 3484 3956 
Q 3856 3800 4163 3494 
Q 4472 3184 4625 2813 
Q 4778 2444 4778 2006 
Q 4778 1578 4625 1206 
Q 4472 838 4163 528 
Q 3856 222 3484 65 
Q 3113 -91 2681 -91 
Q 2250 -91 1878 65 
Q 1506 222 1200 528 
Q 891 838 738 1206 
Q 584 1578 584 2006 
Q 584 2444 738 2813 
Q 891 3184 1200 3494 
Q 1506 3800 1878 3956 
z
" transform="scale(0.015625)"/>
       <path id="DejaVuSans-2f" d="M 1625 4666 
L 2156 4666 
L 531 -594 
L 0 -594 
L 1625 4666 
z
" transform="scale(0.015625)"/>
       <path id="STIXSizeOneSym-Regular-5d" d="M 1299 -1050 
L 128 -1050 
L 128 -838 
L 851 -838 
L 851 6611 
L 128 6611 
L 128 6822 
L 1299 6822 
L 1299 -1050 
z
" transform="scale(0.015625)"/>
      </defs>
      <use xlink:href="#DejaVuSans-Oblique-70" transform="translate(0 0.765625)"/>
      <use xlink:href="#DejaVuSans-20" transform="translate(63.476562 0.765625)"/>
      <use xlink:href="#STIXSizeOneSym-Regular-5b" transform="translate(95.263672 -2.292187) scale(0.875089)"/>
      <use xlink:href="#DejaVuSans-Oblique-4d" transform="translate(128.776169 0.765625)"/>
      <use xlink:href="#DejaVuSans-2299" transform="translate(215.055466 -15.640625) scale(0.7)"/>
      <use xlink:href="#DejaVuSans-2f" transform="translate(276.442184 0.765625)"/>
      <use xlink:href="#DejaVuSans-Oblique-6b" transform="translate(310.133591 0.765625)"/>
      <use xlink:href="#DejaVuSans-Oblique-6d" transform="translate(368.043747 0.765625)"/>
      <use xlink:href="#DejaVuSans-33" transform="translate(470.105752 39.046875) scale(0.7)"/>
      <use xlink:href="#STIXSizeOneSym-Regular-5d" transform="translate(517.37626 -2.292187) scale(0.875089)"/>
     </g>
    </g>
   </g>
   <g id="line2d_154">
    <path d="M 64.980041 16.814341 
L 91.020396 16.925556 
L 116.895152 17.258126 
L 142.397312 17.80773 
L 167.319877 18.566077 
L 191.538649 19.524188 
L 214.888029 20.66893 
L 236.622824 21.952343 
L 256.494637 23.346261 
L 274.834664 24.852788 
L 291.601506 26.449572 
L 306.919362 28.127435 
L 320.91243 29.880887 
L 333.580711 31.688928 
L 345.048403 33.545569 
L 355.481104 35.456852 
L 364.878816 37.401405 
L 373.365736 39.380948 
L 381.024664 41.391907 
L 387.938399 43.434134 
L 394.14834 45.495981 
L 399.778687 47.596135 
L 404.870839 49.731637 
L 409.424796 51.878754 
L 413.564757 54.073714 
L 417.290722 56.298636 
L 420.64409 58.555841 
L 423.707662 60.884755 
L 426.481435 63.274515 
L 429.048211 65.782699 
L 432.815576 69.798257 
L 436.458741 74.005866 
L 439.977708 78.411707 
L 443.331077 82.968391 
L 445.980652 86.913654 
L 448.009233 90.351025 
L 449.913615 94.023012 
L 451.652398 97.861286 
L 453.266983 101.964644 
L 454.840168 106.588547 
L 456.82735 113.283387 
L 458.400535 119.229885 
L 459.890921 125.725325 
L 461.339907 133.062718 
L 462.664695 140.93158 
L 463.906683 149.69292 
L 465.024472 159.196216 
L 466.183661 171.035939 
L 468.41924 195.977536 
L 469.619829 212.287221 
L 469.868227 215.143508 
L 472.807599 240.654382 
L 473.966788 252.970348 
L 475.167377 268.303424 
L 476.243767 285.154576 
L 477.113158 302.505356 
L 477.816952 320.650663 
L 478.520745 345.153551 
L 479.05894 371.974213 
L 479.10034 374.561827 
L 479.10034 374.561827 
" clip-path="url(#pd00703a20a)" style="fill: none; stroke: #ff0000; stroke-width: 1.5; stroke-linecap: square"/>
   </g>
   <g id="line2d_155">
    <path d="M 64.980041 31.030641 
L 96.319546 31.141874 
L 127.327854 31.473399 
L 157.715168 32.01947 
L 187.108891 32.768273 
L 215.343425 33.708238 
L 242.170372 34.821339 
L 267.424134 36.088957 
L 291.146111 37.499467 
L 313.170703 39.028871 
L 333.62211 40.668284 
L 352.500332 42.401799 
L 369.805369 44.210061 
L 385.785619 46.100425 
L 400.358282 48.04544 
L 413.647556 50.038646 
L 425.860441 52.093097 
L 436.872738 54.166709 
L 446.974242 56.290526 
L 456.123556 58.438065 
L 464.444878 60.614778 
L 472.062406 62.83617 
L 478.893342 65.054591 
L 485.186082 67.330337 
L 490.816429 69.600046 
L 495.991381 71.923383 
L 500.628137 74.245746 
L 504.892297 76.62723 
L 508.701061 79.004165 
L 512.261427 81.490034 
L 515.407798 83.953249 
L 518.512768 86.675377 
L 521.49354 89.580682 
L 524.225915 92.556028 
L 526.751291 95.632453 
L 529.111068 98.857949 
L 531.305248 102.232901 
L 533.458028 105.96096 
L 535.403809 109.781875 
L 538.55018 116.333803 
L 540.62016 121.260943 
L 542.607341 126.563847 
L 544.511723 132.282749 
L 546.291907 138.325266 
L 547.989291 144.883721 
L 549.562476 151.866215 
L 551.011462 159.296751 
L 552.460448 167.889645 
L 556.352012 192.951152 
L 557.759599 203.604239 
L 559.249985 215.114665 
L 564.342137 240.852106 
L 565.915322 250.368898 
L 567.488507 261.350812 
L 568.854694 272.252231 
L 570.179482 284.441151 
L 571.338671 297.299678 
L 572.373661 310.95966 
L 573.284452 326.029101 
L 574.278043 346.759743 
L 574.981836 366.404345 
L 575.561431 388.609246 
L 575.60283 390.582369 
L 575.60283 390.582369 
" clip-path="url(#pd00703a20a)" style="fill: none; stroke: #0000ff; stroke-width: 1.5; stroke-linecap: square"/>
   </g>
   <g id="line2d_156">
    <path d="M 64.980041 39.071867 
L 101.287499 39.182938 
L 137.180961 39.514045 
L 172.205031 40.057898 
L 205.945713 40.802146 
L 238.071811 41.730928 
L 268.293526 42.824568 
L 296.403861 44.061185 
L 322.651214 45.43593 
L 346.828586 46.921628 
L 368.894578 48.496826 
L 389.056188 50.156174 
L 407.561814 51.898267 
L 424.245856 53.687932 
L 439.356714 55.528622 
L 453.515381 57.47307 
L 466.225061 59.438571 
L 477.941151 61.474353 
L 488.498051 63.530136 
L 497.978562 65.599301 
L 506.713879 67.729169 
L 514.497006 69.850788 
L 521.576339 72.008 
L 528.034679 74.202524 
L 533.789224 76.388367 
L 539.54377 78.821209 
L 545.049918 81.388667 
L 550.017871 83.946468 
L 554.613228 86.556838 
L 558.960187 89.285925 
L 562.89315 92.017793 
L 566.494916 94.78337 
L 570.013883 97.765098 
L 573.118854 100.682153 
L 575.851228 103.547312 
L 578.252405 106.38411 
L 580.405185 109.273262 
L 582.516565 112.499118 
L 585.000542 116.678644 
L 587.401719 121.15176 
L 589.720097 125.943157 
L 591.955676 131.084327 
L 594.067056 136.505443 
L 596.054238 142.226913 
L 597.91722 148.274027 
L 599.656004 154.675767 
L 601.311988 161.621071 
L 603.050772 169.883278 
L 607.356331 191.368261 
L 609.095115 201.288191 
L 611.537692 215.677223 
L 614.601263 227.035223 
L 617.540635 238.9998 
L 619.362218 247.190539 
L 621.059602 255.848468 
L 623.129583 267.767432 
L 624.868366 279.354068 
L 626.234553 290.004026 
L 627.64214 302.871847 
L 628.75993 315.101779 
L 629.75352 328.413152 
L 630.954109 348.021527 
L 631.782101 365.855156 
L 632.444495 384.601147 
L 632.817091 398.638513 
L 632.817091 398.638513 
" clip-path="url(#pd00703a20a)" style="fill: none; stroke: #008000; stroke-width: 1.5; stroke-linecap: square"/>
   </g>
   <g id="patch_3">
    <path d="M 64.98 382.979062 
L 64.98 11.759062 
" style="fill: none; stroke: #000000; stroke-width: 1.5; stroke-linejoin: miter; stroke-linecap: square"/>
   </g>
   <g id="patch_4">
    <path d="M 644.574539 382.979062 
L 644.574539 11.759062 
" style="fill: none; stroke: #000000; stroke-width: 1.5; stroke-linejoin: miter; stroke-linecap: square"/>
   </g>
   <g id="patch_5">
    <path d="M 64.98 382.979062 
L 644.574539 382.979062 
" style="fill: none; stroke: #000000; stroke-width: 1.5; stroke-linejoin: miter; stroke-linecap: square"/>
   </g>
   <g id="patch_6">
    <path d="M 64.98 11.759062 
L 644.574539 11.759062 
" style="fill: none; stroke: #000000; stroke-width: 1.5; stroke-linejoin: miter; stroke-linecap: square"/>
   </g>
  </g>
  <g id="axes_2">
   <g id="matplotlib.axis_3">
    <g id="ytick_12">
     <g id="line2d_157">
      <defs>
       <path id="mc0df41aa36" d="M 0 0 
L -8 0 
" style="stroke: #000000; stroke-width: 1.2"/>
      </defs>
      <g>
       <use xlink:href="#mc0df41aa36" x="644.574539" y="382.979062" style="stroke: #000000; stroke-width: 1.2"/>
      </g>
     </g>
     <g id="text_29">
      <!-- 0.0 -->
      <g transform="translate(648.074539 387.538125) scale(0.12 -0.12)">
       <defs>
        <path id="DejaVuSans-2e" d="M 684 794 
L 1344 794 
L 1344 0 
L 684 0 
L 684 794 
z
" transform="scale(0.015625)"/>
       </defs>
       <use xlink:href="#DejaVuSans-30"/>
       <use xlink:href="#DejaVuSans-2e" x="63.623047"/>
       <use xlink:href="#DejaVuSans-30" x="95.410156"/>
      </g>
     </g>
    </g>
    <g id="ytick_13">
     <g id="line2d_158">
      <g>
       <use xlink:href="#mc0df41aa36" x="644.574539" y="336.576562" style="stroke: #000000; stroke-width: 1.2"/>
      </g>
     </g>
     <g id="text_30">
      <!-- 0.2 -->
      <g transform="translate(648.074539 341.135625) scale(0.12 -0.12)">
       <use xlink:href="#DejaVuSans-30"/>
       <use xlink:href="#DejaVuSans-2e" x="63.623047"/>
       <use xlink:href="#DejaVuSans-32" x="95.410156"/>
      </g>
     </g>
    </g>
    <g id="ytick_14">
     <g id="line2d_159">
      <g>
       <use xlink:href="#mc0df41aa36" x="644.574539" y="290.174062" style="stroke: #000000; stroke-width: 1.2"/>
      </g>
     </g>
     <g id="text_31">
      <!-- 0.4 -->
      <g transform="translate(648.074539 294.733125) scale(0.12 -0.12)">
       <use xlink:href="#DejaVuSans-30"/>
       <use xlink:href="#DejaVuSans-2e" x="63.623047"/>
       <use xlink:href="#DejaVuSans-34" x="95.410156"/>
      </g>
     </g>
    </g>
    <g id="ytick_15">
     <g id="line2d_160">
      <g>
       <use xlink:href="#mc0df41aa36" x="644.574539" y="243.771562" style="stroke: #000000; stroke-width: 1.2"/>
      </g>
     </g>
     <g id="text_32">
      <!-- 0.6 -->
      <g transform="translate(648.074539 248.330625) scale(0.12 -0.12)">
       <use xlink:href="#DejaVuSans-30"/>
       <use xlink:href="#DejaVuSans-2e" x="63.623047"/>
       <use xlink:href="#DejaVuSans-36" x="95.410156"/>
      </g>
     </g>
    </g>
    <g id="ytick_16">
     <g id="line2d_161">
      <g>
       <use xlink:href="#mc0df41aa36" x="644.574539" y="197.369062" style="stroke: #000000; stroke-width: 1.2"/>
      </g>
     </g>
     <g id="text_33">
      <!-- 0.8 -->
      <g transform="translate(648.074539 201.928125) scale(0.12 -0.12)">
       <use xlink:href="#DejaVuSans-30"/>
       <use xlink:href="#DejaVuSans-2e" x="63.623047"/>
       <use xlink:href="#DejaVuSans-38" x="95.410156"/>
      </g>
     </g>
    </g>
    <g id="ytick_17">
     <g id="line2d_162">
      <g>
       <use xlink:href="#mc0df41aa36" x="644.574539" y="150.966562" style="stroke: #000000; stroke-width: 1.2"/>
      </g>
     </g>
     <g id="text_34">
      <!-- 1.0 -->
      <g transform="translate(648.074539 155.525625) scale(0.12 -0.12)">
       <use xlink:href="#DejaVuSans-31"/>
       <use xlink:href="#DejaVuSans-2e" x="63.623047"/>
       <use xlink:href="#DejaVuSans-30" x="95.410156"/>
      </g>
     </g>
    </g>
    <g id="ytick_18">
     <g id="line2d_163">
      <g>
       <use xlink:href="#mc0df41aa36" x="644.574539" y="104.564062" style="stroke: #000000; stroke-width: 1.2"/>
      </g>
     </g>
     <g id="text_35">
      <!-- 1.2 -->
      <g transform="translate(648.074539 109.123125) scale(0.12 -0.12)">
       <use xlink:href="#DejaVuSans-31"/>
       <use xlink:href="#DejaVuSans-2e" x="63.623047"/>
       <use xlink:href="#DejaVuSans-32" x="95.410156"/>
      </g>
     </g>
    </g>
    <g id="ytick_19">
     <g id="line2d_164">
      <g>
       <use xlink:href="#mc0df41aa36" x="644.574539" y="58.161562" style="stroke: #000000; stroke-width: 1.2"/>
      </g>
     </g>
     <g id="text_36">
      <!-- 1.4 -->
      <g transform="translate(648.074539 62.720625) scale(0.12 -0.12)">
       <use xlink:href="#DejaVuSans-31"/>
       <use xlink:href="#DejaVuSans-2e" x="63.623047"/>
       <use xlink:href="#DejaVuSans-34" x="95.410156"/>
      </g>
     </g>
    </g>
    <g id="ytick_20">
     <g id="line2d_165">
      <g>
       <use xlink:href="#mc0df41aa36" x="644.574539" y="11.759062" style="stroke: #000000; stroke-width: 1.2"/>
      </g>
     </g>
     <g id="text_37">
      <!-- 1.6 -->
      <g transform="translate(648.074539 16.318125) scale(0.12 -0.12)">
       <use xlink:href="#DejaVuSans-31"/>
       <use xlink:href="#DejaVuSans-2e" x="63.623047"/>
       <use xlink:href="#DejaVuSans-36" x="95.410156"/>
      </g>
     </g>
    </g>
    <g id="ytick_21">
     <g id="line2d_166">
      <defs>
       <path id="m6f44526017" d="M 0 0 
L -4 0 
" style="stroke: #000000"/>
      </defs>
      <g>
       <use xlink:href="#m6f44526017" x="644.574539" y="371.378437" style="stroke: #000000"/>
      </g>
     </g>
    </g>
    <g id="ytick_22">
     <g id="line2d_167">
      <g>
       <use xlink:href="#m6f44526017" x="644.574539" y="359.777812" style="stroke: #000000"/>
      </g>
     </g>
    </g>
    <g id="ytick_23">
     <g id="line2d_168">
      <g>
       <use xlink:href="#m6f44526017" x="644.574539" y="348.177187" style="stroke: #000000"/>
      </g>
     </g>
    </g>
    <g id="ytick_24">
     <g id="line2d_169">
      <g>
       <use xlink:href="#m6f44526017" x="644.574539" y="324.975937" style="stroke: #000000"/>
      </g>
     </g>
    </g>
    <g id="ytick_25">
     <g id="line2d_170">
      <g>
       <use xlink:href="#m6f44526017" x="644.574539" y="313.375312" style="stroke: #000000"/>
      </g>
     </g>
    </g>
    <g id="ytick_26">
     <g id="line2d_171">
      <g>
       <use xlink:href="#m6f44526017" x="644.574539" y="301.774687" style="stroke: #000000"/>
      </g>
     </g>
    </g>
    <g id="ytick_27">
     <g id="line2d_172">
      <g>
       <use xlink:href="#m6f44526017" x="644.574539" y="278.573437" style="stroke: #000000"/>
      </g>
     </g>
    </g>
    <g id="ytick_28">
     <g id="line2d_173">
      <g>
       <use xlink:href="#m6f44526017" x="644.574539" y="266.972812" style="stroke: #000000"/>
      </g>
     </g>
    </g>
    <g id="ytick_29">
     <g id="line2d_174">
      <g>
       <use xlink:href="#m6f44526017" x="644.574539" y="255.372187" style="stroke: #000000"/>
      </g>
     </g>
    </g>
    <g id="ytick_30">
     <g id="line2d_175">
      <g>
       <use xlink:href="#m6f44526017" x="644.574539" y="232.170937" style="stroke: #000000"/>
      </g>
     </g>
    </g>
    <g id="ytick_31">
     <g id="line2d_176">
      <g>
       <use xlink:href="#m6f44526017" x="644.574539" y="220.570312" style="stroke: #000000"/>
      </g>
     </g>
    </g>
    <g id="ytick_32">
     <g id="line2d_177">
      <g>
       <use xlink:href="#m6f44526017" x="644.574539" y="208.969687" style="stroke: #000000"/>
      </g>
     </g>
    </g>
    <g id="ytick_33">
     <g id="line2d_178">
      <g>
       <use xlink:href="#m6f44526017" x="644.574539" y="185.768437" style="stroke: #000000"/>
      </g>
     </g>
    </g>
    <g id="ytick_34">
     <g id="line2d_179">
      <g>
       <use xlink:href="#m6f44526017" x="644.574539" y="174.167812" style="stroke: #000000"/>
      </g>
     </g>
    </g>
    <g id="ytick_35">
     <g id="line2d_180">
      <g>
       <use xlink:href="#m6f44526017" x="644.574539" y="162.567187" style="stroke: #000000"/>
      </g>
     </g>
    </g>
    <g id="ytick_36">
     <g id="line2d_181">
      <g>
       <use xlink:href="#m6f44526017" x="644.574539" y="139.365937" style="stroke: #000000"/>
      </g>
     </g>
    </g>
    <g id="ytick_37">
     <g id="line2d_182">
      <g>
       <use xlink:href="#m6f44526017" x="644.574539" y="127.765312" style="stroke: #000000"/>
      </g>
     </g>
    </g>
    <g id="ytick_38">
     <g id="line2d_183">
      <g>
       <use xlink:href="#m6f44526017" x="644.574539" y="116.164687" style="stroke: #000000"/>
      </g>
     </g>
    </g>
    <g id="ytick_39">
     <g id="line2d_184">
      <g>
       <use xlink:href="#m6f44526017" x="644.574539" y="92.963437" style="stroke: #000000"/>
      </g>
     </g>
    </g>
    <g id="ytick_40">
     <g id="line2d_185">
      <g>
       <use xlink:href="#m6f44526017" x="644.574539" y="81.362812" style="stroke: #000000"/>
      </g>
     </g>
    </g>
    <g id="ytick_41">
     <g id="line2d_186">
      <g>
       <use xlink:href="#m6f44526017" x="644.574539" y="69.762187" style="stroke: #000000"/>
      </g>
     </g>
    </g>
    <g id="ytick_42">
     <g id="line2d_187">
      <g>
       <use xlink:href="#m6f44526017" x="644.574539" y="46.560937" style="stroke: #000000"/>
      </g>
     </g>
    </g>
    <g id="ytick_43">
     <g id="line2d_188">
      <g>
       <use xlink:href="#m6f44526017" x="644.574539" y="34.960312" style="stroke: #000000"/>
      </g>
     </g>
    </g>
    <g id="ytick_44">
     <g id="line2d_189">
      <g>
       <use xlink:href="#m6f44526017" x="644.574539" y="23.359687" style="stroke: #000000"/>
      </g>
     </g>
    </g>
    <g id="text_38">
     <!-- $m$ $\left[ M_{\odot} \right]$ -->
     <g transform="translate(682.555945 223.994062) rotate(-90) scale(0.15 -0.15)">
      <use xlink:href="#DejaVuSans-Oblique-6d" transform="translate(0 0.015625)"/>
      <use xlink:href="#DejaVuSans-20" transform="translate(97.412109 0.015625)"/>
      <use xlink:href="#DejaVuSans-5b" transform="translate(129.199219 0.015625)"/>
      <use xlink:href="#DejaVuSans-Oblique-4d" transform="translate(168.212891 0.015625)"/>
      <use xlink:href="#DejaVuSans-2299" transform="translate(254.492188 -16.390625) scale(0.7)"/>
      <use xlink:href="#DejaVuSans-5d" transform="translate(315.878906 0.015625)"/>
     </g>
    </g>
   </g>
   <g id="line2d_190">
    <path d="M 64.980041 382.979062 
L 88.288022 382.868533 
L 100.749304 382.580338 
L 111.223406 382.119391 
L 120.579718 381.488534 
L 129.232236 380.684841 
L 137.34656 379.710573 
L 145.088287 378.558907 
L 152.498817 377.233824 
L 159.660949 375.729383 
L 166.616084 374.04322 
L 173.40562 372.170251 
L 180.070957 370.102156 
L 186.612095 367.84124 
L 193.070435 365.374614 
L 199.445974 362.702655 
L 205.780115 359.807399 
L 212.072856 356.686422 
L 218.324197 353.337937 
L 224.451339 349.805261 
L 230.495682 346.061654 
L 236.498625 342.082053 
L 242.501569 337.834841 
L 248.504512 333.313398 
L 254.507456 328.511348 
L 260.510399 323.423562 
L 266.554742 318.008379 
L 272.599085 312.294667 
L 278.684828 306.235141 
L 284.81197 299.818656 
L 291.021912 292.990648 
L 297.273253 285.785058 
L 303.565994 278.191607 
L 309.941533 270.147266 
L 316.441272 261.585846 
L 323.02381 252.544314 
L 329.689147 243.007578 
L 336.561483 232.782339 
L 343.516617 222.03214 
L 350.720149 210.480966 
L 358.08928 198.241299 
L 365.789607 185.011297 
L 373.738332 170.911077 
L 382.308052 155.250746 
L 391.788562 137.44222 
L 403.214855 115.466365 
L 429.17241 65.34322 
L 431.739186 60.908396 
L 434.264562 56.982761 
L 436.748539 53.52591 
L 439.191116 50.498199 
L 441.633693 47.818486 
L 444.07627 45.466106 
L 447.18124 42.824296 
L 450.203412 40.53094 
L 452.935786 38.728076 
L 455.336964 37.395874 
L 457.034348 36.665979 
L 459.228527 35.957469 
L 461.505505 35.456204 
L 464.030882 35.135222 
L 467.011654 34.988301 
L 474.422184 34.960513 
L 479.10034 34.960313 
L 479.10034 34.960313 
" clip-path="url(#pd00703a20a)" style="fill: none; stroke-dasharray: 5.55,2.4; stroke-dashoffset: 0; stroke: #ff0000; stroke-width: 1.5"/>
   </g>
   <g id="line2d_191">
    <path d="M 64.980041 382.979062 
L 92.966178 382.868044 
L 107.870037 382.579996 
L 120.37272 382.120738 
L 131.592014 381.489045 
L 141.941916 380.685355 
L 151.629425 379.712201 
L 160.820138 378.567932 
L 169.638255 377.247755 
L 178.125175 375.754281 
L 186.363698 374.080144 
L 194.395222 372.221654 
L 202.261148 370.173095 
L 209.961475 367.937903 
L 217.537604 365.506817 
L 224.989534 362.881892 
L 232.358664 360.049647 
L 239.644996 357.010055 
L 246.848528 353.763851 
L 254.01066 350.291699 
L 261.131393 346.592097 
L 268.252126 342.641555 
L 275.33146 338.460012 
L 282.410793 334.02031 
L 289.490126 329.317853 
L 296.569459 324.348373 
L 303.690192 319.076951 
L 310.893724 313.46645 
L 318.138656 307.540112 
L 325.424988 301.290655 
L 332.752719 294.711069 
L 340.163249 287.756 
L 347.739377 280.338531 
L 355.398305 272.525734 
L 363.140032 264.307786 
L 371.047358 255.585114 
L 379.203081 246.255947 
L 387.483003 236.444688 
L 395.969923 226.040313 
L 404.912239 214.725783 
L 414.061552 202.789035 
L 424.080258 189.338203 
L 434.47156 175.011487 
L 446.684445 157.774104 
L 461.381307 136.615465 
L 493.797201 89.819416 
L 503.070714 76.925053 
L 510.439844 67.058898 
L 516.525587 59.276975 
L 520.541349 54.466761 
L 524.308714 50.294638 
L 527.786281 46.773228 
L 530.932651 43.89533 
L 533.706425 41.644901 
L 536.024803 40.020168 
L 538.50878 38.638873 
L 540.951357 37.530138 
L 543.435334 36.645857 
L 546.002109 35.968544 
L 548.775883 35.471075 
L 551.880854 35.148176 
L 555.48262 35.005698 
L 563.721142 34.962268 
L 575.60283 34.960312 
L 575.60283 34.960312 
" clip-path="url(#pd00703a20a)" style="fill: none; stroke-dasharray: 5.55,2.4; stroke-dashoffset: 0; stroke: #0000ff; stroke-width: 1.5"/>
   </g>
   <g id="line2d_192">
    <path d="M 64.980041 382.979062 
L 96.692143 382.867986 
L 113.583183 382.579576 
L 127.74185 382.119873 
L 140.410131 381.489444 
L 152.084821 380.68841 
L 163.014318 379.718294 
L 173.40562 378.574566 
L 183.341526 377.258831 
L 192.904836 375.769703 
L 202.178349 374.101428 
L 211.162064 372.260783 
L 219.938781 370.236575 
L 228.508501 368.033129 
L 236.912621 365.643903 
L 245.192543 363.059047 
L 253.348267 360.279737 
L 261.379791 357.308025 
L 269.328516 354.129599 
L 277.194442 350.744284 
L 284.977569 347.152493 
L 292.719296 343.334116 
L 300.419623 339.287883 
L 308.119951 334.991335 
L 315.820278 330.439327 
L 323.479206 325.653384 
L 331.138134 320.604984 
L 338.797062 315.289625 
L 346.455989 309.703041 
L 354.114917 303.841201 
L 361.815245 297.666353 
L 369.515572 291.205814 
L 377.257299 284.419131 
L 385.206024 277.150381 
L 393.237549 269.503318 
L 401.310473 261.509067 
L 409.466196 253.118495 
L 417.704718 244.321273 
L 425.98464 235.153916 
L 434.388761 225.515396 
L 443.786472 214.386964 
L 453.391182 202.665675 
L 463.202889 190.337499 
L 473.635591 176.862131 
L 485.351681 161.3698 
L 497.771564 144.571827 
L 516.277189 119.135335 
L 536.3974 91.48398 
L 542.979938 82.786439 
L 549.024281 75.171533 
L 554.530429 68.586484 
L 559.498382 62.972664 
L 564.217938 57.964504 
L 568.564897 53.670488 
L 572.622059 49.981274 
L 576.844819 46.441601 
L 581.315977 42.980096 
L 583.965552 41.152868 
L 586.573727 39.620596 
L 589.181903 38.346851 
L 591.790078 37.319439 
L 594.481053 36.497547 
L 597.337626 35.859946 
L 600.442596 35.399415 
L 603.837364 35.124185 
L 608.722518 34.994111 
L 620.27301 34.961592 
L 632.817091 34.960313 
L 632.817091 34.960313 
" clip-path="url(#pd00703a20a)" style="fill: none; stroke-dasharray: 5.55,2.4; stroke-dashoffset: 0; stroke: #008000; stroke-width: 1.5"/>
   </g>
   <g id="patch_7">
    <path d="M 64.98 382.979062 
L 64.98 11.759062 
" style="fill: none; stroke: #000000; stroke-width: 1.5; stroke-linejoin: miter; stroke-linecap: square"/>
   </g>
   <g id="patch_8">
    <path d="M 644.574539 382.979062 
L 644.574539 11.759062 
" style="fill: none; stroke: #000000; stroke-width: 1.5; stroke-linejoin: miter; stroke-linecap: square"/>
   </g>
   <g id="patch_9">
    <path d="M 64.98 382.979062 
L 644.574539 382.979062 
" style="fill: none; stroke: #000000; stroke-width: 1.5; stroke-linejoin: miter; stroke-linecap: square"/>
   </g>
   <g id="patch_10">
    <path d="M 64.98 11.759062 
L 644.574539 11.759062 
" style="fill: none; stroke: #000000; stroke-width: 1.5; stroke-linejoin: miter; stroke-linecap: square"/>
   </g>
   <g id="legend_1">
    <g id="patch_11">
     <path d="M 78.275945 228.16125 
L 240.046258 228.16125 
L 240.046258 166.576875 
L 78.275945 166.576875 
z
" style="fill: #ffffff; stroke: #000000; stroke-linejoin: miter"/>
    </g>
    <g id="line2d_193">
     <path d="M 84.275945 178.724531 
L 94.775945 178.724531 
L 105.275945 178.724531 
" style="fill: none; stroke: #ff0000; stroke-width: 1.5; stroke-linecap: square"/>
    </g>
    <g id="text_39">
     <!-- soft -->
     <g transform="translate(109.775945 183.974531) scale(0.15 -0.15)">
      <defs>
       <path id="DejaVuSans-73" d="M 2834 3397 
L 2834 2853 
Q 2591 2978 2328 3040 
Q 2066 3103 1784 3103 
Q 1356 3103 1142 2972 
Q 928 2841 928 2578 
Q 928 2378 1081 2264 
Q 1234 2150 1697 2047 
L 1894 2003 
Q 2506 1872 2764 1633 
Q 3022 1394 3022 966 
Q 3022 478 2636 193 
Q 2250 -91 1575 -91 
Q 1294 -91 989 -36 
Q 684 19 347 128 
L 347 722 
Q 666 556 975 473 
Q 1284 391 1588 391 
Q 1994 391 2212 530 
Q 2431 669 2431 922 
Q 2431 1156 2273 1281 
Q 2116 1406 1581 1522 
L 1381 1569 
Q 847 1681 609 1914 
Q 372 2147 372 2553 
Q 372 3047 722 3315 
Q 1072 3584 1716 3584 
Q 2034 3584 2315 3537 
Q 2597 3491 2834 3397 
z
" transform="scale(0.015625)"/>
       <path id="DejaVuSans-6f" d="M 1959 3097 
Q 1497 3097 1228 2736 
Q 959 2375 959 1747 
Q 959 1119 1226 758 
Q 1494 397 1959 397 
Q 2419 397 2687 759 
Q 2956 1122 2956 1747 
Q 2956 2369 2687 2733 
Q 2419 3097 1959 3097 
z
M 1959 3584 
Q 2709 3584 3137 3096 
Q 3566 2609 3566 1747 
Q 3566 888 3137 398 
Q 2709 -91 1959 -91 
Q 1206 -91 779 398 
Q 353 888 353 1747 
Q 353 2609 779 3096 
Q 1206 3584 1959 3584 
z
" transform="scale(0.015625)"/>
       <path id="DejaVuSans-66" d="M 2375 4863 
L 2375 4384 
L 1825 4384 
Q 1516 4384 1395 4259 
Q 1275 4134 1275 3809 
L 1275 3500 
L 2222 3500 
L 2222 3053 
L 1275 3053 
L 1275 0 
L 697 0 
L 697 3053 
L 147 3053 
L 147 3500 
L 697 3500 
L 697 3744 
Q 697 4328 969 4595 
Q 1241 4863 1831 4863 
L 2375 4863 
z
" transform="scale(0.015625)"/>
       <path id="DejaVuSans-74" d="M 1172 4494 
L 1172 3500 
L 2356 3500 
L 2356 3053 
L 1172 3053 
L 1172 1153 
Q 1172 725 1289 603 
Q 1406 481 1766 481 
L 2356 481 
L 2356 0 
L 1766 0 
Q 1100 0 847 248 
Q 594 497 594 1153 
L 594 3053 
L 172 3053 
L 172 3500 
L 594 3500 
L 594 4494 
L 1172 4494 
z
" transform="scale(0.015625)"/>
      </defs>
      <use xlink:href="#DejaVuSans-73"/>
      <use xlink:href="#DejaVuSans-6f" x="52.099609"/>
      <use xlink:href="#DejaVuSans-66" x="113.28125"/>
      <use xlink:href="#DejaVuSans-74" x="146.736328"/>
     </g>
    </g>
    <g id="line2d_194">
     <path d="M 84.275945 196.241719 
L 94.775945 196.241719 
L 105.275945 196.241719 
" style="fill: none; stroke: #0000ff; stroke-width: 1.5; stroke-linecap: square"/>
    </g>
    <g id="text_40">
     <!-- middle -->
     <g transform="translate(109.775945 201.491719) scale(0.15 -0.15)">
      <defs>
       <path id="DejaVuSans-6d" d="M 3328 2828 
Q 3544 3216 3844 3400 
Q 4144 3584 4550 3584 
Q 5097 3584 5394 3201 
Q 5691 2819 5691 2113 
L 5691 0 
L 5113 0 
L 5113 2094 
Q 5113 2597 4934 2840 
Q 4756 3084 4391 3084 
Q 3944 3084 3684 2787 
Q 3425 2491 3425 1978 
L 3425 0 
L 2847 0 
L 2847 2094 
Q 2847 2600 2669 2842 
Q 2491 3084 2119 3084 
Q 1678 3084 1418 2786 
Q 1159 2488 1159 1978 
L 1159 0 
L 581 0 
L 581 3500 
L 1159 3500 
L 1159 2956 
Q 1356 3278 1631 3431 
Q 1906 3584 2284 3584 
Q 2666 3584 2933 3390 
Q 3200 3197 3328 2828 
z
" transform="scale(0.015625)"/>
       <path id="DejaVuSans-69" d="M 603 3500 
L 1178 3500 
L 1178 0 
L 603 0 
L 603 3500 
z
M 603 4863 
L 1178 4863 
L 1178 4134 
L 603 4134 
L 603 4863 
z
" transform="scale(0.015625)"/>
       <path id="DejaVuSans-64" d="M 2906 2969 
L 2906 4863 
L 3481 4863 
L 3481 0 
L 2906 0 
L 2906 525 
Q 2725 213 2448 61 
Q 2172 -91 1784 -91 
Q 1150 -91 751 415 
Q 353 922 353 1747 
Q 353 2572 751 3078 
Q 1150 3584 1784 3584 
Q 2172 3584 2448 3432 
Q 2725 3281 2906 2969 
z
M 947 1747 
Q 947 1113 1208 752 
Q 1469 391 1925 391 
Q 2381 391 2643 752 
Q 2906 1113 2906 1747 
Q 2906 2381 2643 2742 
Q 2381 3103 1925 3103 
Q 1469 3103 1208 2742 
Q 947 2381 947 1747 
z
" transform="scale(0.015625)"/>
       <path id="DejaVuSans-6c" d="M 603 4863 
L 1178 4863 
L 1178 0 
L 603 0 
L 603 4863 
z
" transform="scale(0.015625)"/>
       <path id="DejaVuSans-65" d="M 3597 1894 
L 3597 1613 
L 953 1613 
Q 991 1019 1311 708 
Q 1631 397 2203 397 
Q 2534 397 2845 478 
Q 3156 559 3463 722 
L 3463 178 
Q 3153 47 2828 -22 
Q 2503 -91 2169 -91 
Q 1331 -91 842 396 
Q 353 884 353 1716 
Q 353 2575 817 3079 
Q 1281 3584 2069 3584 
Q 2775 3584 3186 3129 
Q 3597 2675 3597 1894 
z
M 3022 2063 
Q 3016 2534 2758 2815 
Q 2500 3097 2075 3097 
Q 1594 3097 1305 2825 
Q 1016 2553 972 2059 
L 3022 2063 
z
" transform="scale(0.015625)"/>
      </defs>
      <use xlink:href="#DejaVuSans-6d"/>
      <use xlink:href="#DejaVuSans-69" x="97.412109"/>
      <use xlink:href="#DejaVuSans-64" x="125.195312"/>
      <use xlink:href="#DejaVuSans-64" x="188.671875"/>
      <use xlink:href="#DejaVuSans-6c" x="252.148438"/>
      <use xlink:href="#DejaVuSans-65" x="279.931641"/>
     </g>
    </g>
    <g id="line2d_195">
     <path d="M 84.275945 213.76125 
L 94.775945 213.76125 
L 105.275945 213.76125 
" style="fill: none; stroke: #000000; stroke-width: 1.5; stroke-linecap: square"/>
    </g>
    <g id="text_41">
     <!-- $p(r)$ -->
     <g transform="translate(109.775945 219.01125) scale(0.15 -0.15)">
      <defs>
       <path id="DejaVuSans-28" d="M 1984 4856 
Q 1566 4138 1362 3434 
Q 1159 2731 1159 2009 
Q 1159 1288 1364 580 
Q 1569 -128 1984 -844 
L 1484 -844 
Q 1016 -109 783 600 
Q 550 1309 550 2009 
Q 550 2706 781 3412 
Q 1013 4119 1484 4856 
L 1984 4856 
z
" transform="scale(0.015625)"/>
       <path id="DejaVuSans-29" d="M 513 4856 
L 1013 4856 
Q 1481 4119 1714 3412 
Q 1947 2706 1947 2009 
Q 1947 1309 1714 600 
Q 1481 -109 1013 -844 
L 513 -844 
Q 928 -128 1133 580 
Q 1338 1288 1338 2009 
Q 1338 2731 1133 3434 
Q 928 4138 513 4856 
z
" transform="scale(0.015625)"/>
      </defs>
      <use xlink:href="#DejaVuSans-Oblique-70" transform="translate(0 0.125)"/>
      <use xlink:href="#DejaVuSans-28" transform="translate(63.476562 0.125)"/>
      <use xlink:href="#DejaVuSans-Oblique-72" transform="translate(102.490234 0.125)"/>
      <use xlink:href="#DejaVuSans-29" transform="translate(143.603516 0.125)"/>
     </g>
    </g>
    <g id="line2d_196">
     <path d="M 175.996258 178.724531 
L 186.496258 178.724531 
L 196.996258 178.724531 
" style="fill: none; stroke: #008000; stroke-width: 1.5; stroke-linecap: square"/>
    </g>
    <g id="text_42">
     <!-- stiff -->
     <g transform="translate(201.496258 183.974531) scale(0.15 -0.15)">
      <use xlink:href="#DejaVuSans-73"/>
      <use xlink:href="#DejaVuSans-74" x="52.099609"/>
      <use xlink:href="#DejaVuSans-69" x="91.308594"/>
      <use xlink:href="#DejaVuSans-66" x="119.091797"/>
      <use xlink:href="#DejaVuSans-66" x="154.296875"/>
     </g>
    </g>
    <g id="line2d_197">
     <path d="M 175.996258 196.241719 
L 186.496258 196.241719 
L 196.996258 196.241719 
" style="fill: none; stroke-dasharray: 5.55,2.4; stroke-dashoffset: 0; stroke: #000000; stroke-width: 1.5"/>
    </g>
    <g id="text_43">
     <!-- $m(r)$ -->
     <g transform="translate(201.496258 201.491719) scale(0.15 -0.15)">
      <use xlink:href="#DejaVuSans-Oblique-6d" transform="translate(0 0.125)"/>
      <use xlink:href="#DejaVuSans-28" transform="translate(97.412109 0.125)"/>
      <use xlink:href="#DejaVuSans-Oblique-72" transform="translate(136.425781 0.125)"/>
      <use xlink:href="#DejaVuSans-29" transform="translate(177.539062 0.125)"/>
     </g>
    </g>
   </g>
  </g>
 </g>
 <defs>
  <clipPath id="pd00703a20a">
   <rect x="64.98" y="11.759062" width="579.594539" height="371.22"/>
  </clipPath>
 </defs>
</svg>
